<svg width="420" height="143" viewBox="0 0 420 143" fill="none" xmlns="http://www.w3.org/2000/svg">
<g clip-path="url(#clip0_2001_11999)">
<g clip-path="url(#clip1_2001_11999)">
<path d="M142.037 5.09497L143.112 4.95997C143.101 4.18597 143.087 3.01597 143.099 2.81097C143.19 1.36397 144.38 0.133973 145.81 0.0129726C145.9 0.00597258 145.99 0.00197258 146.077 -2.74197e-05C146.831 -0.0178885 147.563 0.254118 148.123 0.759973C148.697 1.26897 149.073 2.01997 149.131 2.76697C149.146 2.95897 149.141 4.25797 149.141 5.02397L150.237 5.18697L150.2 11.44L146.093 12L142 11.346L142.037 5.09497ZM146.143 4.58097L147.867 4.83697C147.86 3.90397 147.817 2.54197 147.607 2.18297C147.288 1.63797 146.761 1.31597 146.164 1.30297H146.101C145.494 1.31097 144.963 1.62497 144.643 2.16697C144.421 2.54497 144.377 3.82697 144.378 4.80397L146.143 4.58097ZM160.228 10.108C159.652 10.108 159.164 10.036 158.764 9.89197C158.403 9.75927 158.072 9.55521 157.792 9.29197C157.538 9.04762 157.338 8.75345 157.204 8.42797C157.074 8.09264 156.989 7.74158 156.952 7.38397H157.96C157.992 7.63997 158.048 7.88397 158.128 8.11597C158.208 8.33997 158.332 8.53997 158.5 8.71597C158.668 8.88397 158.888 9.01997 159.16 9.12397C159.44 9.21997 159.796 9.26797 160.228 9.26797C160.508 9.26797 160.764 9.23197 160.996 9.15997C161.236 9.07997 161.444 8.96797 161.62 8.82397C161.796 8.67997 161.932 8.50797 162.028 8.30797C162.132 8.10797 162.184 7.88797 162.184 7.64797C162.184 7.40797 162.152 7.19997 162.088 7.02397C162.023 6.83893 161.907 6.67644 161.752 6.55597C161.563 6.40845 161.347 6.29848 161.116 6.23197C160.787 6.12892 160.45 6.05268 160.108 6.00397C159.698 5.94069 159.293 5.84846 158.896 5.72797C158.576 5.63124 158.272 5.48552 157.996 5.29597C157.76 5.11692 157.567 4.88729 157.432 4.62397C157.304 4.35197 157.24 4.02397 157.24 3.63997C157.24 3.31197 157.308 3.00797 157.444 2.72797C157.58 2.43997 157.768 2.19197 158.008 1.98397C158.256 1.77597 158.548 1.61197 158.884 1.49197C159.22 1.37197 159.592 1.31197 160 1.31197C160.864 1.31197 161.548 1.51597 162.052 1.92397C162.564 2.32397 162.864 2.90797 162.952 3.67597H162.016C161.912 3.13197 161.7 2.74397 161.38 2.51197C161.06 2.27197 160.6 2.15197 160 2.15197C159.408 2.15197 158.96 2.28397 158.656 2.54797C158.512 2.6699 158.397 2.82278 158.32 2.99523C158.243 3.16768 158.206 3.35525 158.212 3.54397C158.212 3.75197 158.236 3.93997 158.284 4.10797C158.34 4.26797 158.44 4.40797 158.584 4.52797C158.736 4.64797 158.944 4.75597 159.208 4.85197C159.557 4.95682 159.914 5.03307 160.276 5.07997C160.756 5.15197 161.176 5.24797 161.536 5.36797C161.896 5.48797 162.2 5.64397 162.448 5.83597C162.696 6.02797 162.88 6.26397 163 6.54397C163.128 6.82397 163.192 7.16797 163.192 7.57597C163.192 7.93597 163.116 8.27197 162.964 8.58397C162.818 8.89125 162.609 9.16497 162.352 9.38797C162.088 9.61197 161.772 9.78797 161.404 9.91597C161.044 10.044 160.652 10.108 160.228 10.108ZM167.355 10.108C166.915 10.108 166.507 10.032 166.131 9.87997C165.772 9.73389 165.446 9.51768 165.171 9.24397C164.893 8.95447 164.677 8.61155 164.535 8.23597C164.386 7.81615 164.313 7.37331 164.319 6.92797V6.83197C164.319 6.35997 164.391 5.92797 164.535 5.53597C164.679 5.13597 164.879 4.79597 165.135 4.51597C165.399 4.22797 165.711 4.00797 166.071 3.85597C166.431 3.69597 166.827 3.61597 167.259 3.61597C167.619 3.61597 167.967 3.67597 168.303 3.79597C168.647 3.90797 168.951 4.08797 169.215 4.33597C169.479 4.58397 169.687 4.90797 169.839 5.30797C169.999 5.69997 170.079 6.17597 170.079 6.73597V7.05997H165.351C165.375 7.77997 165.555 8.33197 165.891 8.71597C166.227 9.09197 166.719 9.27997 167.367 9.27997C168.351 9.27997 168.907 8.91597 169.035 8.18797H170.031C169.919 8.81997 169.623 9.29997 169.143 9.62797C168.663 9.94797 168.067 10.108 167.355 10.108ZM169.059 6.25597C169.011 5.60797 168.827 5.14397 168.507 4.86397C168.195 4.58397 167.779 4.44397 167.259 4.44397C166.747 4.44397 166.327 4.60797 165.999 4.93597C165.679 5.25597 165.475 5.69597 165.387 6.25597H169.059ZM174.091 10.108C173.651 10.108 173.243 10.036 172.867 9.89197C172.505 9.74411 172.175 9.5282 171.895 9.25597C171.616 8.965 171.396 8.62269 171.247 8.24797C171.09 7.82595 171.012 7.37831 171.019 6.92797V6.83197C171.019 6.35197 171.099 5.91597 171.259 5.52397C171.419 5.12397 171.635 4.78397 171.907 4.50397C172.187 4.22397 172.511 4.00797 172.879 3.85597C173.255 3.69597 173.651 3.61597 174.067 3.61597C174.395 3.61597 174.711 3.65597 175.015 3.73597C175.327 3.81597 175.603 3.94397 175.843 4.11997C176.091 4.28797 176.299 4.51197 176.467 4.79197C176.635 5.07197 176.743 5.41197 176.791 5.81197H175.807C175.727 5.31597 175.523 4.96397 175.195 4.75597C174.875 4.54797 174.499 4.44397 174.067 4.44397C173.79 4.44164 173.516 4.49893 173.263 4.61197C173.023 4.72397 172.811 4.88397 172.627 5.09197C172.44 5.31059 172.298 5.56322 172.207 5.83597C172.099 6.15675 172.046 6.49354 172.051 6.83197V6.92797C172.051 7.70397 172.239 8.29197 172.615 8.69197C172.999 9.08397 173.495 9.27997 174.103 9.27997C174.327 9.27997 174.539 9.24797 174.739 9.18397C175.146 9.0611 175.49 8.78601 175.699 8.41597C175.811 8.22397 175.879 7.99997 175.903 7.74397H176.827C176.797 8.07472 176.703 8.39655 176.551 8.69197C176.41 8.97575 176.214 9.22866 175.975 9.43597C175.735 9.64397 175.455 9.80797 175.135 9.92797C174.815 10.048 174.467 10.108 174.091 10.108ZM180.335 10.108C180.038 10.1102 179.742 10.0657 179.459 9.97597C179.201 9.89174 178.967 9.74784 178.775 9.55597C178.572 9.33832 178.417 9.08087 178.319 8.79997C178.207 8.49597 178.151 8.12797 178.151 7.69597V3.72397H179.147V7.64797C179.147 8.19997 179.263 8.60397 179.495 8.85997C179.735 9.11597 180.103 9.24397 180.599 9.24397C180.823 9.24397 181.039 9.20797 181.247 9.13597C181.455 9.06397 181.639 8.95597 181.799 8.81197C181.959 8.66797 182.087 8.48797 182.183 8.27197C182.279 8.05597 182.327 7.80797 182.327 7.52797V3.72397H183.323V9.99997H182.327V9.00397C182.183 9.29997 181.939 9.55997 181.595 9.78397C181.259 9.99997 180.839 10.108 180.335 10.108ZM185.216 3.72397H186.212V4.85197C186.412 4.49997 186.664 4.21197 186.968 3.98797C187.28 3.75597 187.716 3.63197 188.276 3.61597V4.55197C187.989 4.56443 187.703 4.60461 187.424 4.67197C187.182 4.72886 186.957 4.83962 186.764 4.99597C186.578 5.16216 186.438 5.37273 186.356 5.60797C186.26 5.85597 186.212 6.17197 186.212 6.55597V9.99997H185.216V3.72397ZM192 10.108C191.56 10.108 191.152 10.032 190.776 9.87997C190.417 9.73389 190.091 9.51768 189.816 9.24397C189.538 8.95447 189.322 8.61155 189.18 8.23597C189.031 7.81615 188.958 7.37331 188.964 6.92797V6.83197C188.964 6.35997 189.036 5.92797 189.18 5.53597C189.324 5.13597 189.524 4.79597 189.78 4.51597C190.044 4.22797 190.356 4.00797 190.716 3.85597C191.076 3.69597 191.472 3.61597 191.904 3.61597C192.264 3.61597 192.612 3.67597 192.948 3.79597C193.292 3.90797 193.596 4.08797 193.86 4.33597C194.124 4.58397 194.332 4.90797 194.484 5.30797C194.644 5.69997 194.724 6.17597 194.724 6.73597V7.05997H189.996C190.02 7.77997 190.2 8.33197 190.536 8.71597C190.872 9.09197 191.364 9.27997 192.012 9.27997C192.996 9.27997 193.552 8.91597 193.68 8.18797H194.676C194.564 8.81997 194.268 9.29997 193.788 9.62797C193.308 9.94797 192.712 10.108 192 10.108ZM193.704 6.25597C193.656 5.60797 193.472 5.14397 193.152 4.86397C192.84 4.58397 192.424 4.44397 191.904 4.44397C191.392 4.44397 190.972 4.60797 190.644 4.93597C190.324 5.25597 190.12 5.69597 190.032 6.25597H193.704ZM198.496 10.108C198.088 10.108 197.708 10.04 197.356 9.90397C197.017 9.7636 196.711 9.55532 196.456 9.29197C196.199 9.00467 195.999 8.67061 195.868 8.30797C195.727 7.88247 195.658 7.43628 195.664 6.98797V6.89197C195.664 6.41197 195.736 5.97197 195.88 5.57197C196.024 5.17197 196.224 4.82797 196.48 4.53997C196.736 4.24397 197.044 4.01597 197.404 3.85597C197.764 3.69597 198.16 3.61597 198.592 3.61597C199.12 3.61597 199.548 3.72797 199.876 3.95197C200.204 4.16797 200.46 4.42797 200.644 4.73197V0.723973H201.64V9.99997H200.644V8.91997C200.556 9.07197 200.436 9.21997 200.284 9.36397C200.127 9.51142 199.954 9.64028 199.768 9.74797C199.578 9.85442 199.377 9.93896 199.168 9.99997C198.952 10.072 198.728 10.108 198.496 10.108ZM198.604 9.27997C198.892 9.27997 199.164 9.23197 199.42 9.13597C199.676 9.03997 199.896 8.89597 200.08 8.70397C200.264 8.50397 200.408 8.25597 200.512 7.95997C200.624 7.65597 200.68 7.30397 200.68 6.90397V6.80797C200.68 5.99997 200.5 5.40397 200.14 5.01997C199.788 4.63597 199.304 4.44397 198.688 4.44397C198.064 4.44397 197.576 4.65197 197.224 5.06797C196.872 5.48397 196.696 6.07597 196.696 6.84397V6.93997C196.696 7.33197 196.744 7.67597 196.84 7.97197C196.944 8.26797 197.08 8.51197 197.248 8.70397C197.424 8.89597 197.628 9.03997 197.86 9.13597C198.092 9.23197 198.34 9.27997 198.604 9.27997ZM209.712 10.108C209.2 10.108 208.764 9.99597 208.404 9.77197C208.071 9.57441 207.79 9.29841 207.588 8.96797V9.99997H206.592V0.723973H207.588V4.77997C207.682 4.61989 207.8 4.47437 207.936 4.34797C208.088 4.20397 208.256 4.07997 208.44 3.97597C208.632 3.86397 208.836 3.77597 209.052 3.71197C209.268 3.64797 209.488 3.61597 209.712 3.61597C210.12 3.61597 210.5 3.68797 210.852 3.83197C211.204 3.97597 211.504 4.18397 211.752 4.45597C212.008 4.72797 212.208 5.05997 212.352 5.45197C212.496 5.84397 212.568 6.28397 212.568 6.77197V6.86797C212.568 7.34797 212.5 7.78797 212.364 8.18797C212.238 8.56146 212.043 8.90763 211.788 9.20797C211.541 9.49528 211.234 9.7247 210.888 9.87997C210.516 10.036 210.116 10.1136 209.712 10.108ZM209.616 9.27997C210.24 9.27997 210.716 9.07997 211.044 8.67997C211.372 8.27197 211.536 7.68397 211.536 6.91597V6.81997C211.536 6.41997 211.484 6.07197 211.38 5.77597C211.291 5.50601 211.148 5.25696 210.96 5.04397C210.796 4.8471 210.586 4.69444 210.348 4.59997C210.114 4.49554 209.86 4.44235 209.604 4.44397C209.316 4.44397 209.044 4.49197 208.788 4.58797C208.54 4.68368 208.319 4.83569 208.14 5.03197C207.956 5.22397 207.812 5.47197 207.708 5.77597C207.598 6.11273 207.545 6.46568 207.552 6.81997V6.91597C207.552 7.71597 207.744 8.31197 208.128 8.70397C208.512 9.08797 209.008 9.27997 209.616 9.27997ZM215.63 9.35197L213.17 3.72397H214.238L216.158 8.22397L217.898 3.72397H218.918L215.45 12.184H214.442L215.63 9.35197ZM229.127 3.66897C228.837 3.36267 228.487 3.11812 228.1 2.94997C227.712 2.78364 227.294 2.69855 226.872 2.69997C226.424 2.69997 226.024 2.78597 225.685 2.95997C225.435 3.08224 225.21 3.25089 225.023 3.45697V3.26597C225.023 3.19378 225.003 3.12293 224.966 3.06143C224.928 2.99994 224.874 2.95024 224.809 2.91797C224.765 2.89763 224.717 2.88737 224.669 2.88797H223.354C223.306 2.8864 223.257 2.89606 223.213 2.91618C223.169 2.93631 223.131 2.96635 223.1 3.00397C223.034 3.0752 222.998 3.16903 223 3.26597V12.236C223 12.336 223.034 12.424 223.1 12.494C223.133 12.5278 223.172 12.5545 223.216 12.5722C223.26 12.5899 223.307 12.5984 223.354 12.597H224.695C224.74 12.5969 224.785 12.5877 224.827 12.5701C224.869 12.5524 224.907 12.5265 224.939 12.494C224.975 12.4613 225.003 12.4213 225.022 12.3765C225.041 12.3318 225.05 12.2835 225.049 12.235V9.17497C225.227 9.37697 225.466 9.53197 225.751 9.63897C226.101 9.77297 226.471 9.84197 226.844 9.84197C227.274 9.84197 227.692 9.75997 228.086 9.59397C228.478 9.42622 228.832 9.17982 229.126 8.86997C229.431 8.54397 229.671 8.16097 229.833 7.74197C230.015 7.27109 230.104 6.76963 230.096 6.26497C230.096 5.72497 230.01 5.22797 229.833 4.78797C229.674 4.37183 229.434 3.99123 229.127 3.66797V3.66897ZM227.923 6.90897C227.85 7.09897 227.743 7.27097 227.608 7.41897C227.474 7.56764 227.309 7.68605 227.126 7.76639C226.942 7.84673 226.743 7.88715 226.543 7.88497C226.343 7.88597 226.143 7.84497 225.959 7.76497C225.774 7.6842 225.607 7.56646 225.469 7.41897C225.331 7.27086 225.222 7.09777 225.149 6.90897C225.072 6.70791 225.033 6.49428 225.034 6.27897C225.034 6.05497 225.074 5.84397 225.149 5.64797C225.295 5.27094 225.584 4.96684 225.953 4.80197C226.138 4.71597 226.339 4.67197 226.543 4.67297C226.758 4.67297 226.957 4.71697 227.136 4.80297C227.313 4.88597 227.474 5.00197 227.61 5.14397C227.893 5.45318 228.045 5.85994 228.035 6.27897C228.035 6.50397 227.998 6.71497 227.923 6.90897ZM237.298 2.88997H235.968C235.922 2.89052 235.876 2.90056 235.834 2.91948C235.791 2.9384 235.753 2.96579 235.722 2.99997C235.653 3.07134 235.614 3.16668 235.614 3.26597V3.43197C235.448 3.23454 235.243 3.0738 235.012 2.95997C234.65 2.78198 234.25 2.6935 233.846 2.70197C233.421 2.70416 233 2.79045 232.608 2.95589C232.216 3.12133 231.86 3.36266 231.562 3.66597C231.248 3.99031 230.999 4.37144 230.828 4.78897C230.64 5.2583 230.546 5.7603 230.553 6.26597C230.553 6.80597 230.645 7.30297 230.828 7.74297C231.012 8.17697 231.255 8.55997 231.556 8.87097C231.85 9.17875 232.203 9.42367 232.595 9.59092C232.986 9.75816 233.407 9.84425 233.833 9.84397C234.27 9.84397 234.667 9.75597 235.006 9.58497C235.256 9.45497 235.462 9.29797 235.614 9.11397V9.29097C235.613 9.33949 235.622 9.38771 235.641 9.43239C235.66 9.47706 235.688 9.51715 235.724 9.54997C235.756 9.58273 235.794 9.60881 235.835 9.62667C235.877 9.64453 235.922 9.65382 235.968 9.65397H237.298C237.345 9.65557 237.391 9.64701 237.435 9.62888C237.478 9.61076 237.516 9.58349 237.548 9.54897C237.582 9.51523 237.608 9.47492 237.626 9.43054C237.643 9.38617 237.652 9.33867 237.65 9.29097V3.26697C237.652 3.17003 237.616 3.0762 237.55 3.00497C237.519 2.96842 237.48 2.93916 237.437 2.91928C237.393 2.8994 237.346 2.88939 237.298 2.88997ZM235.502 6.89997C235.432 7.08896 235.326 7.26253 235.19 7.41097C235.054 7.55397 234.894 7.67097 234.717 7.75497C234.539 7.83997 234.337 7.88397 234.121 7.88397C233.914 7.88397 233.714 7.83997 233.531 7.75397C233.349 7.67135 233.185 7.55315 233.049 7.40633C232.913 7.2595 232.808 7.087 232.74 6.89897C232.666 6.70069 232.628 6.49068 232.628 6.27897C232.628 6.05397 232.666 5.84297 232.74 5.64697C232.815 5.45397 232.921 5.28297 233.054 5.14297C233.191 4.99997 233.354 4.88297 233.532 4.80097C233.714 4.71597 233.914 4.67197 234.122 4.67197C234.337 4.67197 234.539 4.71597 234.717 4.80197C234.895 4.88697 235.055 5.00197 235.19 5.14297C235.473 5.45239 235.624 5.85909 235.614 6.27797C235.614 6.49297 235.577 6.70197 235.502 6.89997ZM250.567 6.09397C250.373 5.92374 250.152 5.78778 249.913 5.69197C249.666 5.59097 249.404 5.51097 249.128 5.45697L248.114 5.25297C247.854 5.20297 247.673 5.13597 247.571 5.04997C247.529 5.01977 247.495 4.98012 247.471 4.93425C247.448 4.88837 247.435 4.83757 247.435 4.78597C247.435 4.67597 247.498 4.58597 247.624 4.50397C247.761 4.41797 247.953 4.37397 248.19 4.37397C248.45 4.37397 248.708 4.42697 248.947 4.53097C249.19 4.63697 249.418 4.75697 249.617 4.89097C249.912 5.07797 250.163 5.05297 250.344 4.83797L250.831 4.26797C250.924 4.17175 250.978 4.04463 250.983 3.91097C250.983 3.78297 250.919 3.66597 250.798 3.55997C250.591 3.37597 250.265 3.18197 249.827 2.99197C249.39 2.79997 248.84 2.70197 248.19 2.70197C247.763 2.70197 247.37 2.75997 247.022 2.87397C246.672 2.98997 246.372 3.14997 246.129 3.34797C245.884 3.55197 245.691 3.78797 245.559 4.06097C245.428 4.33388 245.36 4.63308 245.361 4.93597C245.361 5.49597 245.528 5.95297 245.857 6.29397C246.185 6.62697 246.623 6.85397 247.161 6.96397L248.215 7.19597C248.515 7.25797 248.743 7.32797 248.89 7.40597C249.019 7.47297 249.08 7.56897 249.08 7.70297C249.08 7.82297 249.019 7.92997 248.892 8.02697C248.759 8.13097 248.55 8.18197 248.27 8.18197C247.982 8.18494 247.697 8.11984 247.439 7.99197C247.193 7.87039 246.965 7.71634 246.761 7.53397C246.67 7.45956 246.566 7.402 246.454 7.36397C246.328 7.32697 246.186 7.36697 246.023 7.49397L245.44 7.95497C245.271 8.09997 245.2 8.27497 245.231 8.47697C245.26 8.67097 245.421 8.87097 245.722 9.09697C245.991 9.28997 246.336 9.46497 246.751 9.61497C247.166 9.76597 247.652 9.84397 248.204 9.84397C248.648 9.84397 249.058 9.78597 249.419 9.67197C249.781 9.55297 250.1 9.39397 250.36 9.19197C250.617 8.99827 250.825 8.74686 250.968 8.45801C251.11 8.16916 251.182 7.85094 251.179 7.52897C251.179 7.20997 251.126 6.92897 251.014 6.69297C250.908 6.46451 250.755 6.26031 250.567 6.09297V6.09397ZM256.383 7.72997C256.354 7.67558 256.312 7.62941 256.26 7.59583C256.209 7.56224 256.149 7.54233 256.088 7.53797C255.964 7.53596 255.843 7.57577 255.745 7.65097C255.65 7.71297 255.547 7.76097 255.439 7.79197C255.301 7.83741 255.153 7.84193 255.013 7.80497C254.946 7.7889 254.884 7.75701 254.832 7.71197C254.769 7.65571 254.721 7.58595 254.689 7.50797C254.645 7.39249 254.625 7.26938 254.63 7.14597V4.68597H256.361C256.46 4.68597 256.549 4.64597 256.627 4.56897C256.662 4.53517 256.69 4.4948 256.709 4.45017C256.728 4.40555 256.738 4.35756 256.739 4.30897V3.26797C256.739 3.21783 256.729 3.16821 256.709 3.12213C256.689 3.07605 256.66 3.03449 256.624 2.99997C256.554 2.93093 256.459 2.89185 256.361 2.89097H254.629V1.21597C254.631 1.16589 254.623 1.11592 254.604 1.06937C254.585 1.02282 254.557 0.980764 254.521 0.945973C254.457 0.880605 254.37 0.843224 254.278 0.841973H252.934C252.861 0.840788 252.79 0.861761 252.729 0.902116C252.668 0.942471 252.621 1.00031 252.594 1.06797C252.575 1.11494 252.566 1.16531 252.567 1.21597V2.88997H251.8C251.752 2.88887 251.704 2.89863 251.659 2.91853C251.615 2.93844 251.576 2.96797 251.545 3.00497C251.481 3.07693 251.446 3.17044 251.447 3.26697V4.30997C251.448 4.38131 251.469 4.45101 251.506 4.51185C251.543 4.57269 251.596 4.62245 251.659 4.65597C251.703 4.67697 251.751 4.68797 251.799 4.68597H252.567V7.61097C252.567 8.00097 252.636 8.33697 252.767 8.61397C252.899 8.88797 253.072 9.11797 253.281 9.28997C253.498 9.46797 253.746 9.59997 254.012 9.67797C254.282 9.76197 254.563 9.80397 254.845 9.80397C255.23 9.80397 255.595 9.74297 255.939 9.62397C256.267 9.51263 256.562 9.32317 256.8 9.07197C256.952 8.89097 256.97 8.69097 256.846 8.49097L256.383 7.73097V7.72997ZM263.672 2.88997H262.343C262.297 2.89079 262.252 2.90096 262.21 2.91987C262.168 2.93878 262.13 2.96604 262.099 2.99997C262.065 3.03525 262.038 3.07664 262.019 3.12197C262.001 3.16786 261.992 3.21671 261.992 3.26597V3.43197C261.824 3.23525 261.619 3.07466 261.387 2.95997C261.052 2.78697 260.661 2.70197 260.219 2.70197C259.799 2.70197 259.385 2.78497 258.993 2.95097C258.597 3.11711 258.239 3.36014 257.938 3.66597C257.624 3.98991 257.375 4.37114 257.204 4.78897C257.014 5.25795 256.921 5.76015 256.928 6.26597C256.928 6.80597 257.02 7.30297 257.203 7.74297C257.387 8.17697 257.631 8.55997 257.932 8.87097C258.225 9.17863 258.578 9.42352 258.969 9.59077C259.359 9.75803 259.78 9.84417 260.205 9.84397C260.612 9.85107 261.014 9.76235 261.38 9.58497C261.635 9.45497 261.837 9.29797 261.992 9.11397V9.29097C261.991 9.33934 261.999 9.38747 262.018 9.43213C262.037 9.4768 262.065 9.51697 262.1 9.54997C262.132 9.58252 262.169 9.60847 262.211 9.62632C262.253 9.64417 262.298 9.65357 262.343 9.65397H263.672C263.719 9.65514 263.766 9.6464 263.809 9.62831C263.853 9.61022 263.892 9.58318 263.924 9.54897C263.991 9.47981 264.027 9.38707 264.026 9.29097V3.26697C264.027 3.17008 263.992 3.07636 263.926 3.00497C263.895 2.9679 263.855 2.9382 263.811 2.91797C263.767 2.89806 263.72 2.88848 263.672 2.88997ZM261.876 6.89997C261.736 7.27697 261.454 7.584 261.09 7.75497C260.904 7.84217 260.701 7.88627 260.496 7.88397C260.289 7.88397 260.091 7.83997 259.908 7.75397C259.726 7.67075 259.562 7.55236 259.427 7.40562C259.291 7.25888 259.185 7.08669 259.116 6.89897C259.041 6.70081 259.003 6.49076 259.003 6.27897C259.003 6.05397 259.04 5.84297 259.115 5.64697C259.188 5.45997 259.294 5.28897 259.429 5.14297C259.567 4.99997 259.729 4.88297 259.908 4.80097C260.092 4.71497 260.293 4.67097 260.496 4.67197C260.713 4.67197 260.911 4.71597 261.09 4.80197C261.271 4.88697 261.43 5.00197 261.562 5.14297C261.696 5.28597 261.802 5.45597 261.876 5.64697C262.033 6.04997 262.033 6.49698 261.876 6.89997ZM270.978 7.63997L270.215 7.04697C270.069 6.92897 269.931 6.89697 269.811 6.94697C269.703 6.99235 269.608 7.06259 269.532 7.15197C269.367 7.35981 269.17 7.54036 268.949 7.68697C268.757 7.80897 268.505 7.86997 268.207 7.86997C267.988 7.86997 267.787 7.82997 267.607 7.74797C267.429 7.66741 267.269 7.55098 267.138 7.40597C267.004 7.25712 266.899 7.08402 266.83 6.89597C266.758 6.69834 266.722 6.48934 266.724 6.27897C266.724 6.05097 266.758 5.84097 266.83 5.64697C266.9 5.45497 267.003 5.28397 267.138 5.14397C267.273 4.99997 267.433 4.88397 267.61 4.80197C267.797 4.71397 268.001 4.66997 268.207 4.67197C268.505 4.67197 268.754 4.73597 268.949 4.85897C269.147 4.98497 269.345 5.16497 269.533 5.39297C269.611 5.48497 269.703 5.55297 269.811 5.59897C269.933 5.64697 270.07 5.61497 270.212 5.49797L270.974 4.90397C271.068 4.83846 271.139 4.74406 271.175 4.63497C271.196 4.5753 271.204 4.51176 271.198 4.44873C271.192 4.38571 271.173 4.32472 271.141 4.26997C270.847 3.80223 270.442 3.41493 269.961 3.14297C269.457 2.85197 268.853 2.70197 268.177 2.70197C267.711 2.69941 267.249 2.78941 266.818 2.96674C266.388 3.14406 265.996 3.40519 265.667 3.73497C265.345 4.05697 265.091 4.44497 264.92 4.87197C264.738 5.31855 264.645 5.79661 264.647 6.27897C264.647 6.77397 264.74 7.24697 264.92 7.68097C265.093 8.10497 265.347 8.48897 265.667 8.80897C265.996 9.13857 266.388 9.39965 266.819 9.57713C267.249 9.7546 267.711 9.84496 268.177 9.84297C268.853 9.84297 269.457 9.69397 269.961 9.39897C270.444 9.12792 270.851 8.73922 271.143 8.26897C271.174 8.21613 271.193 8.15702 271.198 8.09597C271.204 8.03435 271.196 7.97216 271.175 7.91397C271.136 7.80664 271.067 7.7122 270.978 7.64097V7.63997ZM278.06 9.04497L275.956 5.90197L277.757 3.48697C277.851 3.34797 277.876 3.21497 277.832 3.08997C277.801 2.99997 277.716 2.88997 277.498 2.88997H276.073C275.992 2.89071 275.911 2.91058 275.839 2.94797C275.75 2.99298 275.677 3.06462 275.63 3.15297L274.191 5.19997H273.842V0.362973C273.844 0.266727 273.809 0.17346 273.743 0.102973C273.71 0.069812 273.67 0.0436181 273.627 0.02593C273.583 0.00824192 273.537 -0.000583426 273.49 -2.74197e-05H272.158C272.087 0.000210287 272.017 0.0211087 271.957 0.0601461C271.897 0.0991835 271.85 0.154692 271.821 0.219973C271.802 0.265186 271.793 0.313931 271.794 0.362973V9.28997C271.794 9.39297 271.832 9.48297 271.904 9.54897C271.937 9.58239 271.977 9.60881 272.02 9.62667C272.064 9.64453 272.111 9.65347 272.158 9.65297H273.491C273.538 9.65445 273.585 9.64584 273.628 9.62773C273.671 9.60961 273.71 9.58241 273.742 9.54797C273.775 9.51386 273.8 9.47336 273.817 9.42897C273.835 9.38457 273.843 9.33682 273.841 9.28897V6.92697H274.227L275.798 9.37297C275.91 9.55997 276.065 9.65397 276.258 9.65397H277.749C277.975 9.65397 278.069 9.54397 278.107 9.45197C278.161 9.32197 278.145 9.18997 278.06 9.04597V9.04497ZM244.863 2.88997H243.374C243.318 2.88785 243.263 2.89765 243.212 2.91869C243.16 2.93973 243.114 2.97154 243.076 3.01197C243.012 3.08216 242.967 3.16802 242.946 3.26097L241.847 7.42797H241.579L240.397 3.26097C240.377 3.17169 240.338 3.08758 240.284 3.01397C240.252 2.9744 240.212 2.94262 240.166 2.92112C240.121 2.89961 240.071 2.88895 240.02 2.88997H238.476C238.277 2.88997 238.151 2.95597 238.104 3.08297C238.064 3.20288 238.063 3.33264 238.102 3.45297L239.989 9.31797C240.019 9.41097 240.069 9.48797 240.134 9.54997C240.172 9.58507 240.216 9.61234 240.264 9.63019C240.312 9.64805 240.364 9.65613 240.415 9.65397H241.213L241.147 9.84397L240.957 10.391C240.905 10.5589 240.804 10.7074 240.667 10.817C240.541 10.9154 240.385 10.9676 240.225 10.965C240.087 10.9643 239.95 10.9335 239.825 10.875C239.701 10.8185 239.584 10.7484 239.475 10.666C239.377 10.5959 239.26 10.5559 239.14 10.551H239.124C238.994 10.551 238.881 10.625 238.79 10.767L238.316 11.475C238.123 11.779 238.23 11.979 238.355 12.09C238.589 12.314 238.883 12.489 239.23 12.614C239.574 12.739 239.953 12.8 240.356 12.8C241.038 12.8 241.608 12.613 242.045 12.235C242.48 11.859 242.801 11.348 242.997 10.711L245.185 3.45297C245.235 3.29797 245.235 3.16897 245.19 3.06397C245.153 2.98397 245.065 2.88997 244.863 2.88997Z" fill="#011B33"/>
</g>
<path d="M256.289 64.374C255.953 64.374 255.754 64.1222 255.754 63.7095C255.754 63.3317 255.932 63.1114 256.24 63.1114C256.576 63.1114 256.775 63.3632 256.775 63.7864C256.775 64.1536 256.597 64.374 256.289 64.374ZM256.24 65C257.048 65 257.639 64.4404 257.639 63.7095C257.639 63.0275 257.062 62.4924 256.286 62.4924C255.509 62.4924 254.887 63.0485 254.887 63.7864C254.887 64.4684 255.464 65 256.24 65ZM253.684 61.7509L252.872 62.9855L251.963 61.7509H251.169V64.8951H251.956V63.1324L252.585 63.9823H253.033L253.607 63.1324V64.8951H254.467V61.7509H253.68H253.684ZM249.403 64.374C249.067 64.374 248.868 64.1222 248.868 63.7095C248.868 63.3317 249.046 63.1114 249.354 63.1114C249.69 63.1114 249.889 63.3632 249.889 63.7864C249.889 64.1536 249.711 64.374 249.403 64.374ZM249.354 65C250.162 65 250.753 64.4404 250.753 63.7095C250.753 63.0275 250.176 62.4924 249.399 62.4924C248.623 62.4924 248 63.0485 248 63.7864C248 64.4684 248.577 65 249.354 65ZM246.797 61.7509L245.986 62.9855L245.076 61.7509H244.283V64.8951H245.069V63.1324L245.699 63.9823H246.147L246.72 63.1324V64.8951H247.581V61.7509H246.794H246.797ZM241.635 61.7509V63.4856L240.222 61.7509H239.439V64.8951H240.226V63.0974L241.701 64.8951H242.422V61.7509H241.635ZM237.095 62.4644V64.8951H237.97V62.4644H238.998V61.7509H236.064V62.4644H237.095ZM234.836 61.7509L234.025 62.9855L233.115 61.7509H232.321V64.8951H233.108V63.1324L233.738 63.9823H234.186L234.759 63.1324V64.8951H235.619V61.7509H234.833H234.836Z" fill="#457196"/>
<path d="M267.782 50.9613V35.5377C267.782 34.8767 267.247 34.3381 266.582 34.3381H221.962V58.2954H260.444C260.776 58.2954 261.074 58.1625 261.29 57.9457L267.407 51.8077H267.432C267.649 51.5909 267.782 51.2901 267.782 50.9613Z" fill="white"/>
<path d="M266.582 35.5378H245.919V57.0994H260.444L266.582 50.9614V35.5378Z" fill="#EFCF2D"/>
<path d="M261.388 35.5273H257.741C257.027 34.1004 256.016 32.9462 254.708 32.0893C254.628 32.0369 254.54 32.0089 254.449 32.0019C254.282 31.9879 254.114 32.0509 253.995 32.1873L252.757 33.5722C252.078 33.2715 251.354 33.0441 250.595 32.8938C250.595 32.8938 250.295 32.8098 250.158 33.0232C249.798 33.6142 246.797 39.1611 246.678 39.3535C246.479 39.7347 246.227 40.1963 246.689 40.3083C246.962 40.3223 250.025 40.9343 253.002 42.2318C253.026 42.4452 253.051 42.6795 253.068 42.9278L251.186 53.3221C251.116 53.7593 251.386 54.1895 251.816 54.3154C251.819 54.3154 251.571 54.193 257.457 56.0326C257.685 56.1026 258.164 56.1306 258.258 55.6619C258.276 55.5745 261.892 36.4926 261.892 36.4926C262.077 35.7092 261.682 35.5448 261.385 35.5308" fill="white"/>
<path d="M244.72 35.5378H223.158V57.0994H244.72V35.5378Z" fill="#EFCF2D"/>
<path d="M233.941 50.5137C239.565 50.5137 244.122 48.6356 244.122 46.3203C244.122 44.005 239.565 42.1269 233.941 42.1269C228.317 42.1269 223.76 44.005 223.76 46.3203C223.76 48.6356 228.317 50.5137 233.941 50.5137Z" fill="#457196"/>
<path d="M236.49 45.2851L236.756 44.2253H233.28L233.014 45.2851H234.154L233.594 47.5164H234.791L235.35 45.2851H236.49Z" fill="#EFCF2D"/>
<path d="M232.979 44.2253H231.248L230.143 46.6665V44.2253H228.464L227.411 48.4152H228.569L229.251 45.7117V48.4152H230.143L231.458 45.7117L230.828 48.4152H231.93L232.979 44.2253Z" fill="white"/>
<path d="M240.47 44.2253H239.365L238.788 46.4532L238.264 44.2253H237.053L236.004 48.4152H237.109L237.686 46.1349L238.264 48.4152H239.418L240.47 44.2253Z" fill="white"/>
<path d="M233.518 47.8172L233.367 48.4153H234.567L234.717 47.8172H233.518Z" fill="#D52A00"/>
<path d="M254.345 32.516L253.211 33.7821C254.761 34.562 256.051 35.7406 257.013 37.276C257.244 37.6432 257.464 38.0454 257.667 38.4686C258.003 39.1366 258.269 39.8606 258.486 40.5915C258.451 39.941 258.381 39.3185 258.272 38.7274C257.772 35.933 256.485 33.838 254.453 32.5055C254.439 32.495 254.422 32.4915 254.408 32.4915C254.383 32.4915 254.362 32.502 254.345 32.5195" fill="#457196"/>
<path d="M258.517 37.6328C258.688 38.1364 259.199 40.5741 259.367 46.1875C259.853 43.6169 261.098 36.9963 261.098 36.9963C261.256 36.3213 260.916 36.1779 260.661 36.1674L258.003 36.1079C258.206 36.5871 258.377 37.0942 258.517 37.6328Z" fill="black"/>
<path d="M253.449 46.2329C253.442 46.2749 253.47 46.3168 253.512 46.3273C254.533 46.5791 257.625 47.3661 258.65 47.6249C258.657 47.6249 258.664 47.6249 258.671 47.6249C258.688 47.6249 258.706 47.6214 258.72 47.6074C258.741 47.5934 258.751 47.5689 258.755 47.5444C258.755 47.5374 258.755 47.5269 258.755 47.5164C258.353 45.2676 255.974 43.5889 253.435 42.4207C253.572 43.4385 253.656 44.8094 253.446 46.2294" fill="#D52A00"/>
<path d="M263.225 36.2828L262.375 35.4329C262.112 35.1706 261.759 35.0237 261.388 35.0237L257.461 35.0097C257.559 35.1776 257.65 35.3525 257.741 35.5273H261.388C261.686 35.5343 262.077 35.6987 261.895 36.4856C261.895 36.4856 258.279 55.5675 258.262 55.6549C258.167 56.1271 257.692 56.0991 257.461 56.0257C251.571 54.186 251.823 54.3084 251.819 54.3084C251.389 54.1825 251.12 53.7558 251.19 53.3152L253.072 42.9209C253.054 42.6725 253.033 42.4382 253.005 42.2249C252.907 42.1829 252.809 42.1409 252.711 42.099L250.697 53.2347C250.585 53.9272 251.005 54.5952 251.68 54.7911L257.741 56.6377C257.87 56.6762 257.999 56.6937 258.132 56.6937C258.318 56.6937 258.503 56.6552 258.678 56.5817L259.773 56.1166C260.21 55.9312 260.525 55.5325 260.601 55.0639L263.613 37.4929C263.686 37.0487 263.543 36.594 263.225 36.2758" fill="black"/>
<path d="M256.009 49.3386C255.974 49.5309 256.107 49.7303 256.31 49.7827L258.027 50.2269C258.237 50.2794 258.437 50.1675 258.472 49.9681L258.612 49.2127C258.646 49.0168 258.507 48.814 258.297 48.765L256.58 48.3418C256.377 48.2928 256.184 48.4083 256.149 48.6006L256.009 49.3421V49.3386Z" fill="black"/>
<path d="M252.676 48.4223C252.641 48.6111 252.767 48.8 252.956 48.849L254.576 49.2686C254.771 49.3211 254.964 49.2057 254.999 49.0168L255.139 48.2824C255.174 48.09 255.044 47.8977 254.845 47.8487L253.222 47.45C253.03 47.4045 252.848 47.5164 252.809 47.7053L252.673 48.4223H252.676Z" fill="black"/>
<path d="M255.565 51.402C255.53 51.5944 255.663 51.7972 255.866 51.8532L257.58 52.3288C257.79 52.3848 257.989 52.2729 258.024 52.0735L258.164 51.3146C258.199 51.1152 258.059 50.9124 257.853 50.8564L256.139 50.4018C255.936 50.3493 255.744 50.4612 255.709 50.6536L255.569 51.3985L255.565 51.402Z" fill="black"/>
<path d="M252.239 50.4298C252.204 50.6187 252.33 50.8145 252.519 50.867L254.138 51.3147C254.334 51.3706 254.526 51.2587 254.561 51.0664L254.701 50.3319C254.736 50.1395 254.607 49.9437 254.408 49.8912L252.788 49.4645C252.596 49.4121 252.414 49.524 252.379 49.7129L252.239 50.4333V50.4298Z" fill="black"/>
<path d="M255.142 53.476C255.107 53.6718 255.24 53.8782 255.439 53.9341L257.15 54.4413C257.356 54.5042 257.555 54.3923 257.594 54.1929L257.734 53.4305C257.769 53.2312 257.629 53.0248 257.422 52.9654L255.709 52.4827C255.506 52.4268 255.313 52.5352 255.278 52.731L255.138 53.4795L255.142 53.476Z" fill="black"/>
<path d="M251.823 52.4443C251.788 52.6331 251.91 52.8325 252.103 52.8884L253.719 53.3641C253.914 53.4235 254.103 53.3116 254.142 53.1193L254.282 52.3813C254.317 52.189 254.187 51.9861 253.991 51.9336L252.376 51.4755C252.187 51.423 252.001 51.5314 251.966 51.7203L251.826 52.4443H251.823Z" fill="black"/>
<path d="M250.466 33.3834L246.909 39.7522C246.895 39.7766 246.895 39.8081 246.906 39.8326C246.916 39.8571 246.941 39.8746 246.972 39.8781C248.49 40.0879 256.982 42.1024 258.716 46.121C258.716 46.121 258.884 46.4742 258.888 46.5267L258.877 46.086C258.877 46.044 258.762 41.6757 257.24 38.6435C257.045 38.2308 256.835 37.8461 256.611 37.4928C255.208 35.2615 253.173 33.866 250.557 33.3449C250.553 33.3449 250.546 33.3449 250.539 33.3449C250.511 33.3449 250.483 33.3589 250.466 33.3869" fill="#457196"/>
<path d="M252.799 41.5953C254.782 41.5953 256.394 39.9865 256.394 38C256.394 36.0135 254.785 34.4047 252.799 34.4047C250.812 34.4047 249.203 36.0135 249.203 38C249.203 39.9865 250.812 41.5953 252.799 41.5953Z" fill="white"/>
<path d="M255.761 38.0034C255.761 39.6402 254.436 40.9658 252.799 40.9658C251.162 40.9658 249.836 39.6402 249.836 38.0034C249.836 36.3667 251.162 35.0411 252.799 35.0411C254.436 35.0411 255.761 36.3667 255.761 38.0034ZM256.125 38.0034C256.125 36.1673 254.635 34.6809 252.802 34.6809C250.97 34.6809 249.48 36.1708 249.48 38.0034C249.48 39.8361 250.97 41.326 252.802 41.326C254.635 41.326 256.125 39.8361 256.125 38.0034Z" fill="#457196"/>
<path d="M146.936 64.8048V62.6199C146.948 62.4501 146.926 62.2795 146.871 62.1181C146.817 61.9566 146.73 61.8073 146.618 61.6788C146.505 61.5503 146.367 61.4451 146.214 61.3692C146.06 61.2932 145.892 61.248 145.721 61.2362H145.553C145.311 61.22 145.068 61.2688 144.851 61.3775C144.634 61.4862 144.451 61.6507 144.321 61.8538C144.199 61.6551 144.026 61.4928 143.818 61.3841C143.611 61.2753 143.378 61.2242 143.144 61.2362C142.942 61.2274 142.741 61.2702 142.561 61.3605C142.381 61.4508 142.227 61.5856 142.115 61.7518V61.3236H141.35V64.8048H142.12V62.8879C142.106 62.7818 142.113 62.6738 142.14 62.5703C142.168 62.4667 142.216 62.3695 142.281 62.2843C142.347 62.1991 142.429 62.1275 142.522 62.0736C142.616 62.0198 142.719 61.9846 142.826 61.9703C142.878 61.9659 142.93 61.9659 142.982 61.9703C143.488 61.9703 143.747 62.2966 143.747 62.8879V64.8252H144.518V62.8879C144.502 62.7692 144.513 62.6486 144.549 62.5345C144.586 62.4204 144.647 62.3156 144.729 62.2275C144.811 62.1395 144.912 62.0703 145.023 62.0249C145.135 61.9794 145.256 61.9588 145.377 61.9645C145.9 61.9645 146.15 62.2908 146.15 62.8821V64.8194L146.936 64.8048ZM158.357 61.3236H157.086V60.269H156.316V61.3236H155.616V62.014H156.33V63.6162C156.33 64.4261 156.645 64.9068 157.551 64.9068C157.889 64.907 158.22 64.8131 158.507 64.6358L158.287 63.9891C158.081 64.1085 157.848 64.1756 157.61 64.1843C157.242 64.1843 157.101 63.9512 157.101 63.6017V62.014H158.351L158.357 61.3236ZM164.875 61.2362C164.689 61.2306 164.504 61.275 164.341 61.3648C164.178 61.4545 164.042 61.5862 163.949 61.746V61.3236H163.193V64.8048H163.958V62.853C163.958 62.2704 164.208 61.9557 164.693 61.9557C164.856 61.9554 165.017 61.985 165.169 62.0431L165.405 61.3149C165.23 61.2533 165.046 61.2218 164.861 61.2216L164.875 61.2362ZM155.027 61.6003C154.595 61.3447 154.098 61.2182 153.595 61.2362C152.712 61.2362 152.124 61.6586 152.124 62.349C152.124 62.9316 152.551 63.2667 153.336 63.3774L153.704 63.4269C154.124 63.4851 154.321 63.5958 154.321 63.791C154.321 64.0619 154.042 64.2134 153.521 64.2134C153.099 64.2265 152.685 64.0982 152.345 63.8493L151.977 64.4319C152.424 64.7389 152.957 64.897 153.501 64.8834C154.516 64.8834 155.101 64.4086 155.101 63.7473C155.101 63.086 154.639 62.8151 153.874 62.7044L153.507 62.6549C153.177 62.6112 152.918 62.5442 152.918 62.3112C152.918 62.0781 153.168 61.9033 153.586 61.9033C153.973 61.9057 154.353 62.006 154.689 62.1946L155.027 61.6003ZM175.503 61.2362C175.316 61.2306 175.132 61.275 174.969 61.3648C174.805 61.4545 174.67 61.5862 174.576 61.746V61.3236H173.82V64.8048H174.585V62.853C174.585 62.2704 174.835 61.9557 175.32 61.9557C175.483 61.9554 175.645 61.985 175.797 62.0431L176.032 61.3149C175.857 61.2533 175.673 61.2218 175.488 61.2216L175.503 61.2362ZM165.652 63.0569C165.642 63.2879 165.679 63.5186 165.759 63.7355C165.84 63.9524 165.964 64.1513 166.123 64.3206C166.281 64.49 166.473 64.6264 166.685 64.722C166.898 64.8176 167.127 64.8705 167.361 64.8776H167.528C167.988 64.8992 168.439 64.7507 168.793 64.461L168.426 63.8493C168.161 64.049 167.838 64.1593 167.505 64.1639C167.224 64.1392 166.962 64.0111 166.771 63.8049C166.581 63.5987 166.475 63.3292 166.475 63.0496C166.475 62.77 166.581 62.5006 166.771 62.2944C166.962 62.0881 167.224 61.96 167.505 61.9354C167.838 61.9389 168.16 62.0482 168.426 62.2471L168.793 61.6353C168.438 61.3464 167.987 61.1989 167.528 61.2216C167.295 61.2071 167.062 61.2384 166.841 61.3139C166.62 61.3894 166.417 61.5076 166.243 61.6615C166.068 61.8154 165.927 62.002 165.826 62.2105C165.725 62.4191 165.667 62.6454 165.655 62.8763V63.0423L165.652 63.0569ZM172.814 63.0569V61.3236H172.049V61.746C171.919 61.5809 171.751 61.4486 171.56 61.36C171.368 61.2714 171.158 61.229 170.946 61.2362C170.459 61.2362 169.991 61.428 169.646 61.7695C169.302 62.1109 169.108 62.574 169.108 63.0569C169.108 63.5398 169.302 64.0029 169.646 64.3443C169.991 64.6858 170.459 64.8776 170.946 64.8776C171.158 64.8848 171.368 64.8424 171.56 64.7538C171.751 64.6652 171.919 64.5329 172.049 64.3678V64.7902H172.814V63.0569ZM169.967 63.0569C169.978 62.7763 170.099 62.5111 170.305 62.3183C170.511 62.1255 170.786 62.0205 171.069 62.0259C171.353 62.0312 171.623 62.1465 171.821 62.3469C172.02 62.5473 172.131 62.8169 172.131 63.0977C172.131 63.3785 172.02 63.6481 171.821 63.8485C171.623 64.0489 171.353 64.1642 171.069 64.1695C170.786 64.1749 170.511 64.0699 170.305 63.8771C170.099 63.6843 169.978 63.4191 169.967 63.1385V63.0569ZM160.743 61.2362C160.255 61.2432 159.79 61.4416 159.45 61.788C159.111 62.1344 158.924 62.6002 158.931 63.0831C158.938 63.566 159.138 64.0264 159.488 64.3629C159.838 64.6994 160.308 64.8846 160.796 64.8776C161.328 64.9064 161.853 64.737 162.266 64.4028L161.899 63.8435C161.607 64.0737 161.247 64.2018 160.875 64.2076C160.622 64.2281 160.371 64.1506 160.176 63.9913C159.98 63.832 159.854 63.6035 159.825 63.354H162.434V63.0627C162.434 61.9703 161.752 61.242 160.766 61.242L160.743 61.2362ZM160.743 61.912C160.972 61.9119 161.192 62 161.356 62.1576C161.521 62.3153 161.617 62.5302 161.625 62.7569H159.79C159.803 62.5232 159.907 62.3039 160.082 62.146C160.256 61.9881 160.486 61.9041 160.722 61.912H160.743ZM179.894 63.0773V59.9253H179.147V61.746C179.017 61.5809 178.849 61.4486 178.657 61.36C178.466 61.2714 178.256 61.229 178.044 61.2362C177.557 61.2362 177.089 61.428 176.744 61.7695C176.399 62.1109 176.206 62.574 176.206 63.0569C176.206 63.5398 176.399 64.0029 176.744 64.3443C177.089 64.6858 177.557 64.8776 178.044 64.8776C178.256 64.8848 178.466 64.8424 178.657 64.7538C178.849 64.6652 179.017 64.5329 179.147 64.3678V64.7902H179.88L179.894 63.0773ZM181.171 64.3125C181.219 64.3127 181.267 64.3216 181.312 64.3387C181.354 64.3541 181.393 64.3791 181.424 64.4115C181.457 64.4423 181.484 64.4789 181.503 64.5193C181.538 64.6062 181.538 64.7033 181.503 64.7902C181.483 64.8302 181.456 64.8666 181.424 64.898C181.392 64.9292 181.354 64.9539 181.312 64.9708C181.268 64.9905 181.219 65.0004 181.171 65C181.102 64.9993 181.034 64.9793 180.976 64.9422C180.917 64.905 180.871 64.8524 180.841 64.7902C180.823 64.7475 180.813 64.7014 180.813 64.6548C180.813 64.6081 180.823 64.562 180.841 64.5193C180.856 64.4758 180.88 64.4361 180.912 64.4028C180.944 64.3699 180.983 64.345 181.027 64.33C181.074 64.3095 181.125 64.3005 181.177 64.3037L181.171 64.3125ZM181.171 64.9271C181.207 64.928 181.243 64.921 181.277 64.9068C181.308 64.8925 181.337 64.8728 181.362 64.8485C181.408 64.7986 181.433 64.7337 181.433 64.6664C181.433 64.5991 181.408 64.5342 181.362 64.4843C181.339 64.4582 181.31 64.4382 181.277 64.4261C181.244 64.4108 181.207 64.4029 181.171 64.4028C181.134 64.4032 181.098 64.4112 181.065 64.4261C181.031 64.4381 181.001 64.4581 180.977 64.4843C180.93 64.5336 180.904 64.5987 180.904 64.6664C180.904 64.7341 180.93 64.7993 180.977 64.8485C181.002 64.873 181.032 64.8928 181.065 64.9068C181.102 64.9224 181.142 64.9294 181.183 64.9271H181.171ZM181.194 64.4931C181.228 64.4925 181.261 64.5027 181.289 64.5222C181.3 64.5319 181.309 64.544 181.314 64.5577C181.32 64.5714 181.322 64.5862 181.321 64.6009C181.321 64.6126 181.32 64.6243 181.316 64.6353C181.312 64.6463 181.305 64.6564 181.297 64.665C181.276 64.6852 181.248 64.6966 181.218 64.697L181.327 64.8194H181.241L181.141 64.697H181.109V64.8194H181.038V64.4989L181.194 64.4931ZM181.112 64.5572V64.6446H181.194C181.209 64.6475 181.224 64.6475 181.239 64.6446C181.242 64.6331 181.242 64.6211 181.239 64.6096C181.242 64.5991 181.242 64.588 181.239 64.5776H181.194L181.112 64.5572ZM177.071 63.0773C177.082 62.8061 177.2 62.5501 177.399 62.3642C177.599 62.1782 177.864 62.0772 178.138 62.0827C178.412 62.0882 178.673 62.1999 178.865 62.3937C179.057 62.5876 179.164 62.8482 179.164 63.1195C179.164 63.3909 179.057 63.6515 178.865 63.8454C178.673 64.0392 178.412 64.1509 178.138 64.1564C177.864 64.1619 177.599 64.0609 177.399 63.8749C177.2 63.689 177.082 63.433 177.071 63.1618C177.066 63.129 177.063 63.0959 177.062 63.0627L177.071 63.0773ZM151.256 63.0773V61.3294H150.492V61.7518C150.362 61.5865 150.194 61.4542 150.002 61.3655C149.81 61.2769 149.6 61.2346 149.389 61.242C148.901 61.242 148.433 61.4339 148.089 61.7753C147.744 62.1167 147.55 62.5799 147.55 63.0627C147.55 63.5456 147.744 64.0087 148.089 64.3502C148.433 64.6916 148.901 64.8834 149.389 64.8834C149.6 64.8909 149.81 64.8485 150.002 64.7599C150.194 64.6713 150.362 64.5389 150.492 64.3736V64.7961H151.256V63.0773ZM148.412 63.0773C148.424 62.8219 148.536 62.5812 148.725 62.4068C148.914 62.2324 149.164 62.138 149.422 62.1439C149.68 62.1498 149.926 62.2555 150.106 62.4384C150.287 62.6212 150.388 62.8668 150.388 63.1225C150.388 63.3781 150.287 63.6237 150.106 63.8065C149.926 63.9894 149.68 64.0951 149.422 64.101C149.164 64.1069 148.914 64.0126 148.725 63.8381C148.536 63.6637 148.424 63.423 148.412 63.1676C148.412 63.1385 148.412 63.1093 148.412 63.0773Z" fill="black"/>
<path d="M154.766 34.8054H166.343V55.4129H154.766V34.8054Z" fill="#FF5F00"/>
<path d="M155.501 45.1091C155.499 43.1245 155.952 41.1653 156.828 39.3801C157.703 37.5949 158.978 36.0305 160.554 34.8054C158.602 33.2844 156.257 32.3383 153.787 32.0752C151.317 31.8121 148.823 32.2425 146.588 33.3174C144.354 34.3922 142.47 36.0681 141.152 38.1533C139.834 40.2385 139.135 42.649 139.135 45.1091C139.135 47.5692 139.834 49.9797 141.152 52.0649C142.47 54.1502 144.354 55.826 146.588 56.9008C148.823 57.9757 151.317 58.4061 153.787 58.143C156.257 57.8799 158.602 56.9338 160.554 55.4129C158.978 54.1876 157.704 52.6232 156.828 50.838C155.953 49.0528 155.499 47.0937 155.501 45.1091Z" fill="#EB001B"/>
<path d="M181.962 45.1091C181.96 47.5672 181.261 49.9753 179.943 52.0584C178.626 54.1416 176.744 55.816 174.511 56.8904C172.279 57.9648 169.787 58.396 167.319 58.1348C164.851 57.8735 162.507 56.9303 160.554 55.4129C162.129 54.1862 163.402 52.6214 164.277 50.8366C165.153 49.0517 165.608 47.0934 165.608 45.1091C165.608 43.1249 165.153 41.1665 164.277 39.3817C163.402 37.5968 162.129 36.0321 160.554 34.8054C162.507 33.2881 164.85 32.3449 167.318 32.0836C169.786 31.8222 172.278 32.2531 174.51 33.3272C176.742 34.4013 178.625 36.0752 179.942 38.158C181.26 40.2407 181.96 42.6484 181.962 45.1062V45.1091Z" fill="#F79E1B"/>
<path d="M180.7 53.228V52.8056H180.871V52.7182H180.435V52.8056H180.618V53.228H180.7ZM181.547 53.228V52.7182H181.415L181.262 53.0823L181.106 52.7182H180.988V53.228H181.086V52.8464L181.23 53.1756H181.327L181.471 52.8464V53.2309L181.547 53.228Z" fill="#F79E1B"/>
<path d="M61.2138 38.3467L53.2102 57.2587H47.9891L44.0505 42.1658C43.8093 41.2365 43.6034 40.8927 42.874 40.5024C41.6974 39.8644 39.7237 39.2672 38 38.8943L38.1147 38.3467H46.5213C47.0708 38.3456 47.6025 38.5391 48.0205 38.8922C48.4385 39.2453 48.7153 39.7347 48.8009 40.2722L50.8805 51.2169L56.0339 38.3467H61.2138ZM81.6744 51.0829C81.6979 46.0927 74.7062 45.8159 74.7532 43.5874C74.7709 42.9086 75.4209 42.1862 76.8505 42.0026C78.5213 41.8455 80.204 42.1374 81.7215 42.8475L82.5892 38.839C81.1106 38.2889 79.5447 38.0048 77.9653 38C73.0854 38 69.6469 40.5694 69.6204 44.2516C69.5881 46.9754 72.0736 48.4931 73.9443 49.3991C75.868 50.3255 76.5151 50.9197 76.5063 51.75C76.4916 53.0172 74.9709 53.5765 73.5502 53.5998C71.0676 53.6377 69.6234 52.9356 68.4762 52.4054L67.5938 56.5508C68.7468 57.0752 70.8764 57.5326 73.0884 57.553C78.2771 57.553 81.6715 55.0156 81.6862 51.0829H81.6744ZM94.5667 57.2587H99.1348L95.155 38.3467H90.9341C90.4836 38.3428 90.0424 38.4728 89.6674 38.7201C89.2925 38.9673 89.0011 39.3203 88.8309 39.7333L81.4185 57.2587H86.6043L87.6367 54.433H93.9784L94.5667 57.2587ZM89.0545 50.5585L91.6547 43.4592L93.1519 50.5585H89.0545ZM68.2703 38.3496L64.1847 57.2616H59.2489L63.3346 38.3496H68.2703Z" fill="url(#paint0_linear_2001_11999)"/>
<path d="M167.682 95.9813C167.682 95.9813 165.646 98.9526 162.919 98.9484L162.911 99.0454C164.011 99.3024 166.944 99.7197 169.637 97.7641C169.637 97.7641 168.301 97.3553 167.682 95.9855V95.9813Z" fill="#656B2F"/>
<path d="M173.279 93.0563C171.176 97.2162 168.58 98.6702 166.531 99.0917C166.464 99.1001 164.748 99.3698 162.923 98.9484L162.911 99.0537C162.911 99.0537 165.452 99.5131 166.531 99.6438C176.334 101.039 179.344 95.9981 179.344 95.9981L173.279 93.0563Z" fill="#89A93A"/>
<path d="M175.622 93.4694C175.433 93.3851 175.277 93.3176 175.125 93.246C174.956 93.1659 174.796 93.0774 174.623 93.01C174.48 92.9552 174.446 92.8709 174.446 92.7276C174.45 92.1038 174.442 91.4801 174.455 90.8521C174.455 90.6498 174.408 90.5781 174.193 90.5781C171.913 90.5866 169.633 90.5824 167.353 90.5781C167.168 90.5781 167.121 90.6456 167.121 90.8184C167.121 93.4272 167.121 96.0361 167.121 98.6449C167.121 100.154 167.121 101.663 167.121 103.167C167.121 103.466 167.121 103.458 167.416 103.458C169.667 103.458 171.922 103.458 174.172 103.458C174.442 103.458 174.442 103.458 174.442 103.188C174.442 102.16 174.446 101.127 174.442 100.099C174.442 99.9051 174.51 99.8166 174.687 99.7618C174.948 99.6817 175.205 99.5848 175.462 99.4836C175.593 99.4331 175.643 99.471 175.643 99.6017C175.643 99.7534 175.643 99.9051 175.643 100.053C175.643 101.974 175.631 103.896 175.643 105.818C175.652 106.783 174.826 107.643 173.827 107.626C171.787 107.597 169.747 107.618 167.707 107.618C166.696 107.618 165.912 106.859 165.907 105.848C165.903 103.896 165.907 101.949 165.907 99.9978C165.907 96.9296 165.907 93.8655 165.907 90.7973C165.907 89.79 166.683 89.0019 167.69 89.0019C169.739 89.0019 171.783 88.9977 173.831 89.0019C174.88 89.0019 175.643 89.7774 175.643 90.8352C175.643 91.6234 175.643 92.4157 175.643 93.2039C175.643 93.2755 175.631 93.3471 175.622 93.4652V93.4694ZM170.034 105.287H170.038C170.038 105.464 170.038 105.645 170.038 105.822C170.038 105.987 170.109 106.063 170.274 106.063C170.636 106.063 171.003 106.063 171.365 106.063C171.513 106.063 171.58 105.987 171.58 105.848C171.58 105.477 171.58 105.106 171.58 104.735C171.58 104.592 171.5 104.512 171.365 104.507C170.995 104.503 170.624 104.507 170.253 104.507C170.105 104.507 170.029 104.592 170.034 104.748C170.034 104.925 170.034 105.106 170.034 105.283V105.287ZM172.651 105.3C172.651 105.772 172.626 105.717 173.051 105.717C173.515 105.717 173.49 105.78 173.485 105.291C173.485 104.887 173.54 104.87 173.077 104.878C172.651 104.883 172.651 104.878 172.651 105.3ZM168.171 105.312C168.171 105.359 168.179 105.409 168.171 105.456C168.129 105.675 168.242 105.734 168.436 105.721C168.567 105.713 168.698 105.721 168.824 105.721C168.942 105.721 169.001 105.666 168.997 105.544C168.997 105.409 168.988 105.27 168.997 105.135C169.009 104.942 168.934 104.853 168.735 104.878C168.689 104.883 168.639 104.878 168.592 104.878C168.162 104.887 168.158 104.802 168.167 105.312H168.171Z" fill="#D12912"/>
<path d="M177.628 112.633C177.953 112.507 178.235 112.359 178.539 112.284C178.964 112.178 179.403 112.191 179.816 112.343C180.431 112.566 180.768 113.038 180.903 113.662C180.954 113.881 180.992 114.108 180.992 114.332C181 115.415 180.992 116.502 181 117.585C181 117.779 180.928 117.838 180.747 117.834C180.444 117.826 180.144 117.834 179.841 117.834C179.588 117.834 179.567 117.822 179.567 117.569C179.567 116.637 179.575 115.702 179.567 114.77C179.567 114.509 179.529 114.235 179.449 113.986C179.306 113.548 178.88 113.35 178.442 113.485C178.345 113.514 178.248 113.552 178.151 113.594C177.788 113.754 177.578 113.969 177.599 114.433C177.645 115.453 177.616 116.477 177.616 117.501C177.616 117.834 177.616 117.834 177.291 117.834C176.996 117.834 176.701 117.83 176.406 117.834C176.242 117.834 176.191 117.771 176.191 117.611C176.191 115.242 176.195 112.878 176.191 110.509C176.191 110.324 176.263 110.273 176.436 110.277C176.752 110.286 177.068 110.29 177.384 110.277C177.569 110.273 177.624 110.349 177.62 110.522C177.611 111.141 177.611 111.757 177.611 112.376C177.611 112.461 177.62 112.549 177.628 112.638V112.633Z" fill="#D12912"/>
<path d="M166.712 113.902C166.565 113.586 166.422 113.299 166.304 113.004C166.283 112.954 166.342 112.827 166.396 112.789C167.218 112.279 168.108 112.077 169.056 112.334C169.806 112.536 170.299 113.206 170.316 114.054C170.341 115.255 170.324 116.456 170.333 117.657C170.333 117.792 170.274 117.838 170.147 117.834C169.907 117.83 169.667 117.834 169.427 117.834C169.182 117.834 169.026 117.722 168.959 117.497C168.866 117.556 168.778 117.615 168.689 117.67C167.99 118.133 166.687 118.091 166.068 117.075C165.785 116.612 165.747 115.621 166.27 115.12C166.809 114.606 167.475 114.437 168.179 114.344C168.369 114.319 168.563 114.302 168.752 114.285C168.866 114.277 168.9 114.222 168.9 114.108C168.891 113.653 168.575 113.388 168.053 113.388C167.593 113.388 167.206 113.59 166.83 113.83C166.801 113.847 166.776 113.864 166.708 113.902H166.712ZM168.908 115.87C168.908 115.727 168.917 115.583 168.904 115.44C168.9 115.39 168.832 115.305 168.799 115.305C168.377 115.339 167.943 115.347 167.564 115.567C167.319 115.71 167.201 116.026 167.265 116.3C167.324 116.544 167.513 116.721 167.825 116.721C168.065 116.721 168.314 116.675 168.542 116.603C168.786 116.523 168.972 116.363 168.904 116.056C168.891 115.997 168.904 115.933 168.904 115.87H168.908Z" fill="#D12912"/>
<path d="M174.948 113.855C174.775 113.763 174.64 113.695 174.514 113.624C174.033 113.35 173.515 113.299 172.979 113.379C172.727 113.417 172.588 113.556 172.554 113.788C172.52 114.02 172.583 114.159 172.861 114.247C173.317 114.395 173.784 114.505 174.248 114.635C175.5 114.989 175.748 116.098 175.344 116.974C175.121 117.459 174.699 117.725 174.202 117.843C173.203 118.074 172.238 117.969 171.323 117.488C171.311 117.48 171.298 117.476 171.285 117.472C170.931 117.278 170.919 117.227 171.096 116.869C171.205 116.646 171.315 116.426 171.424 116.207C171.433 116.19 171.454 116.182 171.454 116.186C171.783 116.355 172.086 116.54 172.415 116.671C172.84 116.835 173.296 116.89 173.751 116.78C174.004 116.721 174.147 116.57 174.168 116.359C174.189 116.127 174.088 115.946 173.827 115.857C173.439 115.727 173.039 115.621 172.642 115.512C172.288 115.415 171.951 115.284 171.669 115.04C171.176 114.614 171.032 113.746 171.344 113.169C171.627 112.646 172.086 112.385 172.642 112.296C173.511 112.157 174.353 112.241 175.146 112.654C175.424 112.798 175.432 112.806 175.314 113.084C175.205 113.341 175.078 113.59 174.952 113.868L174.948 113.855Z" fill="#D12912"/>
<path d="M160.757 115.128C160.791 114.488 160.905 113.889 161.238 113.333C161.929 112.182 163.488 111.972 164.466 112.511C164.837 112.718 165.123 112.996 165.334 113.367C165.397 113.476 165.389 113.556 165.279 113.628C165.01 113.809 164.744 113.986 164.479 114.167C164.394 114.226 164.34 114.214 164.276 114.121C164.175 113.973 164.066 113.834 163.939 113.708C163.589 113.35 163.054 113.341 162.679 113.678C162.422 113.91 162.287 114.201 162.249 114.542C162.194 115.023 162.173 115.499 162.359 115.963C162.548 116.439 162.923 116.692 163.442 116.7C163.943 116.709 164.407 116.608 164.803 116.27C164.892 116.195 164.955 116.228 164.993 116.325C165.098 116.62 165.216 116.915 165.301 117.219C165.317 117.282 165.254 117.4 165.195 117.442C164.782 117.737 164.306 117.868 163.809 117.923C163.214 117.99 162.628 117.952 162.089 117.657C161.44 117.303 161.056 116.747 160.888 116.043C160.816 115.744 160.795 115.436 160.753 115.133L160.757 115.128Z" fill="#D12912"/>
<path d="M153.82 103.462C153.82 108.132 153.82 112.802 153.82 117.467C153.82 117.531 153.82 117.59 153.82 117.653C153.82 117.893 153.685 117.99 153.466 117.897C153.415 117.876 153.373 117.771 153.373 117.703C153.365 117.29 153.373 116.882 153.373 116.469C153.373 107.445 153.373 98.4258 153.373 89.4023C153.373 89.3475 153.377 89.2927 153.373 89.2379C153.365 89.0735 153.449 89.0272 153.605 89.0314C153.757 89.0398 153.82 89.082 153.82 89.2505C153.816 93.9878 153.82 98.725 153.82 103.462Z" fill="#D12912"/>
<path d="M128.262 89.082C120.322 89.1073 113.966 95.5346 114 103.521C114.034 111.432 120.377 117.918 128.423 117.834C136.262 117.75 142.605 111.327 142.516 103.264C142.478 95.4756 136.03 89.0567 128.262 89.082ZM136.144 105.852C135.908 106.838 135.469 107.732 134.879 108.562C134.041 109.746 132.928 110.572 131.613 111.137C130.698 111.529 129.729 111.702 128.827 111.715C125.177 111.698 122.096 109.46 120.98 106.075C120.352 104.175 120.314 102.248 120.781 100.306C121.405 97.6967 122.767 95.5388 124.777 93.7855C126.509 92.2767 128.524 91.2989 130.774 90.8521C130.884 90.8311 130.989 90.81 131.099 90.7931C131.196 90.7805 133.143 90.5065 134.058 90.7004C134.058 90.7004 133.442 90.9954 132.81 91.3832C132.574 91.5222 132.355 91.674 132.148 91.8299L132.14 91.8383C130.85 92.8372 130.117 94.2112 129.915 95.9518C129.851 96.4955 129.931 96.4491 130.366 96.5629C131.938 96.9718 133.375 97.6377 134.492 98.8599C135.339 99.7829 135.861 100.875 136.156 102.088C136.464 103.348 136.447 104.6 136.144 105.848V105.852Z" fill="#D12912"/>
<path d="M414.927 6.23749H301.106V6.59852H414.927C416.175 6.59916 417.371 7.08996 418.253 7.96317C419.135 8.83638 419.632 10.0206 419.633 11.2558V137.926C419.632 139.161 419.135 140.346 418.253 141.219C417.371 142.092 416.175 142.583 414.927 142.584H5.06807C3.82019 142.582 2.62386 142.091 1.74193 141.216C0.859996 140.342 0.364609 139.157 0.36461 137.921V11.251C0.367183 10.017 0.863705 8.83441 1.74536 7.96232C2.62701 7.09022 3.82187 6.59979 5.06807 6.59852H113.916V6.23749H5.06807C3.72433 6.23876 2.43599 6.76789 1.48583 7.70873C0.535656 8.64958 0.00128711 9.92527 0 11.2558V137.926C0.00128711 139.257 0.535656 140.533 1.48583 141.473C2.43599 142.414 3.72433 142.943 5.06807 142.945H414.927C416.272 142.944 417.562 142.415 418.513 141.473C419.465 140.531 419.999 139.253 420 137.921V11.251C419.997 9.92065 419.461 8.64584 418.51 7.70603C417.559 6.76623 416.271 6.23812 414.927 6.23749Z" fill="#D0D0D0"/>
<path d="M228.567 93.1554C229.285 93.1399 229.953 93.2525 230.579 93.5632C232.117 94.3206 232.87 95.8005 232.622 97.5056C232.389 99.0865 231.651 100.419 230.559 101.565C229.402 102.78 228.054 103.744 226.574 104.52C225.906 104.874 225.203 105.119 224.418 105.126C223.723 105.134 223.148 104.73 223.051 103.891C223.005 103.483 223.094 103.091 223.238 102.718C223.544 101.926 224.042 101.281 224.787 100.854C225.149 100.648 225.533 100.574 225.945 100.714C226.555 100.92 226.761 101.545 226.341 102.038C226.046 102.388 225.685 102.679 225.37 103.013C225.16 103.235 224.97 103.472 224.791 103.716C224.702 103.841 224.648 104 224.772 104.144C224.888 104.28 225.059 104.264 225.199 104.214C225.51 104.101 225.824 103.992 226.108 103.833C227.86 102.846 229.297 101.537 230.237 99.7351C230.482 99.269 230.606 98.7718 230.59 98.2397C230.563 97.3075 229.899 96.7715 228.994 97.024C228.489 97.1638 227.984 97.358 227.526 97.6183C226.726 98.0688 225.964 98.5854 225.191 99.0787C224.601 99.4555 223.983 99.7662 223.304 99.9371C222.935 100.03 222.558 100.057 222.181 99.9876C221.486 99.8594 220.985 99.3312 221 98.5776C221.012 98.1271 221.14 97.7192 221.346 97.3308C221.746 96.5812 222.27 95.9403 222.954 95.4315C224.115 94.5731 225.347 93.839 226.745 93.4312C227.347 93.2564 227.961 93.1437 228.567 93.1632V93.1554Z" fill="#D52A0F"/>
<path d="M241.408 98.7757C241.462 98.4378 241.47 98.1076 241.388 97.7891C241.283 97.3852 241.011 97.1482 240.608 97.055C239.974 96.9074 239.365 97.0278 238.766 97.2181C238.362 97.3463 237.974 97.5133 237.539 97.6765C237.298 97.2453 237.12 96.7792 236.906 96.3054C236.98 96.2471 237.038 96.1889 237.104 96.1539C238.289 95.5441 239.528 95.1712 240.876 95.2877C241.812 95.3693 242.643 95.6839 243.253 96.4452C243.552 96.822 243.742 97.2531 243.816 97.727C243.874 98.0998 243.913 98.4766 243.917 98.8495C243.928 100.384 243.917 101.914 243.928 103.448C243.928 103.697 243.851 103.868 243.668 104.023C243.055 104.544 242.348 104.889 241.575 105.087C240.957 105.247 240.324 105.332 239.683 105.309C238.075 105.243 236.848 104.311 236.393 103.002C235.888 101.545 236.428 99.7001 238.296 99.0748C238.813 98.9 239.345 98.8068 239.893 98.8068C240.328 98.8068 240.767 98.8068 241.202 98.8068C241.268 98.8068 241.338 98.7912 241.419 98.7796L241.408 98.7757ZM241.415 100.438C240.926 100.407 240.479 100.399 240.04 100.477C239.489 100.574 239.093 100.877 238.883 101.397C238.7 101.856 238.724 102.318 238.895 102.772C239.042 103.157 239.31 103.421 239.703 103.549C240.196 103.709 240.674 103.615 241.151 103.452C241.377 103.374 241.45 103.239 241.447 103.006C241.435 102.264 241.447 101.526 241.443 100.784C241.443 100.679 241.427 100.578 241.415 100.438Z" fill="#D52A0F"/>
<path d="M269.334 100.578H264.103C264.095 100.811 264.071 101.009 264.091 101.203C264.126 101.553 264.161 101.91 264.25 102.248C264.487 103.134 265.109 103.608 266.033 103.619C266.876 103.627 267.66 103.39 268.395 102.986C268.484 102.936 268.577 102.885 268.709 102.811L269.369 104.155C269.292 104.225 269.241 104.287 269.175 104.326C267.983 105.08 266.686 105.445 265.276 105.301C263.772 105.15 262.724 104.349 262.102 102.982C261.675 102.042 261.524 101.056 261.593 100.023C261.659 99.0709 261.846 98.1581 262.296 97.3114C262.829 96.3132 263.621 95.6334 264.755 95.4198C265.582 95.2645 266.402 95.3111 267.187 95.6179C267.952 95.917 268.468 96.4841 268.787 97.2259C269.241 98.2747 269.327 99.3855 269.334 100.574V100.578ZM266.79 99.0631C266.798 98.4494 266.748 97.9095 266.348 97.4745C265.975 97.0706 265.314 97.0123 264.872 97.358C264.336 97.7736 264.196 98.364 264.173 99.0554C265.05 99.0787 265.889 99.067 266.79 99.0631Z" fill="#D52A0F"/>
<path d="M256.614 93.1631C257.437 93.0311 258.234 92.899 259.08 92.7631V95.3965C259.628 95.4975 260.145 95.3887 260.673 95.4742V97.1677C260.556 97.1793 260.444 97.1949 260.331 97.1949C260.001 97.1987 259.671 97.2026 259.341 97.1949C259.162 97.1949 259.077 97.2648 259.084 97.4473C259.084 97.5056 259.084 97.5638 259.084 97.6221C259.084 99.1641 259.084 100.71 259.084 102.252C259.084 102.322 259.084 102.392 259.084 102.466C259.119 103.161 259.488 103.549 260.18 103.619C260.331 103.635 260.483 103.639 260.685 103.646C260.704 104.132 260.696 104.61 260.688 105.115C259.803 105.278 258.96 105.254 258.14 104.92C257.604 104.703 257.208 104.334 256.948 103.821C256.715 103.359 256.618 102.866 256.618 102.353C256.618 100.562 256.618 98.7718 256.618 96.9812C256.618 95.8509 256.618 94.7207 256.618 93.5904V93.1709L256.614 93.1631Z" fill="#D52A0F"/>
<path d="M274.842 103.666V105.087C274.792 105.111 274.753 105.146 274.71 105.153C273.918 105.282 273.137 105.266 272.384 104.963C271.611 104.656 271.152 104.066 270.981 103.27C270.892 102.858 270.849 102.431 270.849 102.011C270.838 99.1719 270.841 96.3326 270.845 93.4933C270.845 93.4001 270.857 93.3069 270.865 93.167L273.265 92.7476C273.269 92.9223 273.281 93.0583 273.281 93.1942C273.281 96.2355 273.281 99.2729 273.281 102.314C273.281 102.477 273.292 102.644 273.323 102.804C273.397 103.188 273.642 103.433 274.015 103.526C274.275 103.592 274.543 103.619 274.85 103.67L274.842 103.666Z" fill="#D52A0F"/>
<path d="M255.927 95.5946L255.266 97.0783C255.088 97.0589 254.936 97.0512 254.785 97.0279C254.128 96.923 253.526 97.0861 252.943 97.3774C252.675 97.5134 252.563 97.7037 252.563 98.0222C252.575 100.224 252.571 102.427 252.571 104.629V105.037C252.291 105.13 250.59 105.146 250.17 105.064C250.162 104.948 250.147 104.823 250.147 104.699C250.147 102.295 250.147 99.8943 250.139 97.4901C250.139 97.2298 250.217 97.0473 250.407 96.8764C251.537 95.8315 252.858 95.2645 254.404 95.2916C254.835 95.2994 255.262 95.4159 255.69 95.4859C255.756 95.4975 255.814 95.5402 255.927 95.5946Z" fill="#D52A0F"/>
<path d="M248.108 105.099H245.769C245.762 104.971 245.746 104.858 245.746 104.742C245.746 101.891 245.746 99.036 245.746 96.185C245.746 95.8199 245.75 95.8277 246.107 95.7733C246.62 95.6956 247.129 95.6024 247.642 95.5208C247.789 95.4975 247.941 95.4859 248.081 95.4703C248.162 95.7539 248.182 104.637 248.108 105.095V105.099Z" fill="#D52A0F"/>
<path d="M248.473 93.07C248.539 93.9439 247.789 94.643 246.97 94.6392C246.088 94.6353 245.424 93.9905 245.42 93.1049C245.416 92.231 246.111 91.5435 246.997 91.5513C247.863 91.559 248.535 92.297 248.473 93.07Z" fill="#D52A0F"/>
<path d="M297.968 100.737C298.015 99.7895 298.19 98.8807 298.636 98.0417C299.269 96.857 300.248 96.1346 301.573 95.8743C302.458 95.6995 303.332 95.7384 304.183 96.053C305.348 96.4841 306.144 97.3115 306.587 98.4495C307.197 100.023 307.127 101.603 306.405 103.114C305.663 104.66 304.35 105.387 302.66 105.472C301.786 105.515 300.947 105.371 300.178 104.92C299.04 104.252 298.403 103.227 298.131 101.961C298.046 101.561 298.023 101.145 297.968 100.737ZM300.384 100.528C300.353 101.044 300.427 101.557 300.602 102.05C301.037 103.258 301.984 103.577 303.049 103.39C303.701 103.274 304.117 102.823 304.365 102.221C304.618 101.603 304.649 100.963 304.598 100.31C304.56 99.8245 304.466 99.3545 304.245 98.9156C303.833 98.0999 303.138 97.7892 302.268 97.8319C301.413 97.8747 300.885 98.3602 300.594 99.1331C300.427 99.5798 300.357 100.046 300.384 100.528Z" fill="#314983"/>
<path d="M296.776 98.667C296.593 98.6087 296.465 98.5971 296.368 98.5349C295.42 97.9251 294.364 97.762 293.28 97.8863C291.629 98.0766 290.748 99.3506 290.748 100.671C290.748 101.161 290.806 101.638 290.973 102.097C291.307 103.025 291.998 103.545 292.95 103.709C293.327 103.775 293.727 103.771 294.111 103.744C294.574 103.712 294.752 103.491 294.76 103.025C294.772 102.365 294.772 101.704 294.624 101.056C294.609 100.99 294.624 100.92 294.624 100.823C295.106 100.823 295.576 100.784 296.042 100.834C296.523 100.885 296.947 101.347 296.958 101.821C296.978 102.407 296.97 102.998 296.935 103.588C296.869 104.614 296.306 105.27 295.327 105.542C293.692 105.992 292.099 105.884 290.62 105.002C289.346 104.245 288.627 103.103 288.444 101.627C288.285 100.314 288.526 99.0904 289.303 98.0028C290.095 96.8919 291.214 96.2821 292.527 95.9986C293.21 95.851 293.906 95.8121 294.601 95.8937C295.121 95.9559 295.615 96.1035 296.042 96.4297C296.531 96.8026 296.815 97.2765 296.784 97.9096C296.772 98.1387 296.784 98.3718 296.784 98.6709L296.776 98.667Z" fill="#314983"/>
<path d="M278.653 93.9206V95.9792C279.041 95.9831 279.387 95.9908 279.736 95.9947C280.078 95.9947 280.42 95.9947 280.762 95.9947H281.837C281.865 96.3987 281.9 96.7638 281.826 97.1211C281.725 97.6067 281.379 97.8552 280.921 97.9562C280.715 98.0028 280.501 97.9989 280.288 97.9989C279.841 98.0067 279.391 97.9989 278.944 98.0028C278.691 98.0067 278.653 98.0417 278.653 98.2903C278.653 99.5293 278.637 100.764 278.664 102.003C278.68 102.73 279.095 103.239 279.713 103.324C280.323 103.406 280.936 103.378 281.523 103.157C281.608 103.126 281.698 103.095 281.783 103.064C282.172 104.159 281.616 105.138 280.505 105.324C279.798 105.445 279.095 105.398 278.408 105.188C277.371 104.87 276.734 104.159 276.505 103.107C276.415 102.695 276.376 102.268 276.372 101.844C276.357 100.042 276.361 98.2359 276.372 96.4336C276.372 96.0724 276.415 95.6995 276.512 95.3539C276.637 94.9149 276.943 94.5731 277.278 94.2702C277.65 93.9284 278.085 93.8041 278.649 93.9245L278.653 93.9206Z" fill="#314983"/>
<path d="M262.219 109.345C262.114 109.679 262.009 110.013 261.9 110.347C261.566 111.376 261.228 112.405 260.898 113.438C260.844 113.605 260.758 113.699 260.576 113.695C260.257 113.687 259.939 113.687 259.62 113.695C259.449 113.695 259.368 113.617 259.317 113.462C258.917 112.207 258.509 110.953 258.102 109.698C258.063 109.581 258.028 109.465 257.993 109.348L257.907 109.36C257.729 110.786 257.55 112.211 257.368 113.66C256.952 113.734 256.56 113.691 256.121 113.691C256.156 112.902 256.315 112.168 256.408 111.43C256.501 110.669 256.61 109.912 256.715 109.154C256.82 108.408 256.925 107.663 257.037 106.87C257.472 106.87 257.892 106.866 258.315 106.87C258.467 106.87 258.482 107.014 258.517 107.123C258.766 107.884 259.018 108.641 259.267 109.407C259.496 110.114 259.721 110.82 259.943 111.527C260.009 111.733 260.063 111.947 260.125 112.153H260.218C260.413 111.566 260.603 110.98 260.797 110.397C260.991 109.814 261.186 109.236 261.38 108.657C261.578 108.067 261.78 107.48 261.978 106.886H263.372C263.683 109.15 263.994 111.391 264.312 113.687C263.823 113.722 263.369 113.706 262.867 113.695C262.685 112.238 262.502 110.801 262.32 109.364L262.227 109.356L262.219 109.345Z" fill="#314983"/>
<path d="M290.934 107.2C292.488 109.259 294.48 110.521 297.114 110.463C299.681 110.405 301.81 109.403 303.375 107.216C303.394 107.364 303.414 107.441 303.41 107.515C303.394 107.973 303.422 108.439 303.352 108.886C303.208 109.783 302.726 110.498 302.054 111.096C300.932 112.094 299.635 112.763 298.147 112.93C295.626 113.209 293.451 112.452 291.73 110.541C291.144 109.892 290.887 109.108 290.868 108.245C290.86 107.911 290.868 107.573 290.868 107.239L290.938 107.204L290.934 107.2Z" fill="#314983"/>
<path d="M283.597 96.2084C284.001 96.2045 284.374 96.1618 284.747 96.255C285.341 96.4026 285.733 96.8221 285.811 97.428C285.838 97.6377 285.846 97.8514 285.846 98.0611C285.846 99.4167 285.846 100.768 285.846 102.124C285.846 102.31 285.858 102.501 285.893 102.687C285.966 103.103 286.219 103.363 286.638 103.429C286.891 103.472 287.151 103.476 287.407 103.499C287.485 103.507 287.567 103.522 287.66 103.534C287.734 103.946 287.703 104.342 287.578 104.722C287.493 104.983 287.306 105.177 287.046 105.251C286.063 105.53 284.385 105.328 283.822 103.918C283.663 103.518 283.578 103.103 283.574 102.679C283.566 100.605 283.57 98.535 283.574 96.4608C283.574 96.3909 283.585 96.321 283.593 96.2006L283.597 96.2084Z" fill="#314983"/>
<path d="M283.08 116.029C283.108 115.831 283.123 115.672 283.15 115.509C283.178 115.349 283.216 115.19 283.255 115.011C283.434 115.011 283.593 115.011 283.756 115.011C284.242 115.011 284.591 114.794 284.789 114.347C284.852 114.207 284.89 114.056 284.96 113.92C285.069 113.703 285.042 113.501 284.953 113.279C284.428 111.939 283.919 110.599 283.403 109.255C283.341 109.092 283.286 108.929 283.209 108.715C283.682 108.688 284.102 108.684 284.518 108.723C284.591 108.731 284.681 108.878 284.716 108.979C285.019 109.834 285.31 110.692 285.605 111.551C285.644 111.667 285.698 111.78 285.745 111.896H285.823C285.865 111.784 285.916 111.671 285.955 111.555C286.219 110.712 286.475 109.869 286.739 109.026C286.836 108.708 286.84 108.708 287.182 108.704C287.497 108.704 287.815 108.704 288.176 108.704C288.145 108.84 288.13 108.941 288.095 109.034C287.431 110.82 286.766 112.611 286.087 114.394C285.959 114.732 285.784 115.062 285.574 115.357C285.112 115.994 284.424 116.134 283.69 116.111C283.496 116.103 283.302 116.064 283.084 116.037L283.08 116.029Z" fill="#314983"/>
<path d="M265.427 111.197C265.435 110.782 265.493 110.378 265.66 109.993C265.979 109.263 266.519 108.797 267.303 108.634C267.831 108.525 268.36 108.54 268.868 108.723C269.839 109.073 270.309 109.822 270.434 110.801C270.496 111.294 270.445 111.784 270.263 112.261C269.832 113.384 268.9 113.866 267.793 113.819C266.88 113.78 266.165 113.396 265.73 112.561C265.524 112.164 265.419 111.691 265.427 111.197ZM269.051 111.372C269.032 110.82 268.993 110.44 268.795 110.09C268.581 109.713 268.247 109.539 267.831 109.562C267.4 109.585 267.113 109.83 266.977 110.238C266.93 110.382 266.895 110.533 266.872 110.681C266.794 111.201 266.822 111.718 267.035 112.199C267.214 112.599 267.532 112.813 267.983 112.797C268.43 112.782 268.752 112.564 268.888 112.141C268.985 111.842 269.02 111.527 269.051 111.368V111.372Z" fill="#314983"/>
<path d="M276.272 113.691C275.965 113.691 275.697 113.691 275.429 113.691C275.301 113.691 275.172 113.679 275.009 113.671C274.998 113.516 274.974 113.38 274.974 113.244C274.974 112.374 274.974 111.5 274.974 110.63C274.974 110.502 274.974 110.37 274.947 110.246C274.862 109.818 274.574 109.628 274.147 109.71C273.805 109.776 273.537 109.962 273.339 110.238C273.273 110.331 273.257 110.479 273.254 110.603C273.246 111.473 273.254 112.347 273.25 113.217C273.25 113.357 273.238 113.493 273.23 113.66C272.787 113.718 272.372 113.695 271.91 113.679C271.89 112.021 271.902 110.389 271.898 108.731H273.145L273.238 109.236C273.366 109.139 273.467 109.069 273.564 108.995C274.096 108.591 274.687 108.471 275.332 108.634C275.891 108.774 276.167 109.174 276.268 109.71C276.299 109.881 276.314 110.059 276.314 110.238C276.318 111.275 276.314 112.312 276.314 113.349C276.314 113.442 276.295 113.532 276.279 113.687L276.272 113.691Z" fill="#314983"/>
<path d="M282.276 111.477H279.235C279.107 111.943 279.387 112.487 279.833 112.696C280.241 112.887 280.661 112.852 281.076 112.743C281.29 112.689 281.492 112.592 281.733 112.502L282.137 113.306C282.063 113.361 282.008 113.423 281.938 113.454C281.111 113.862 280.245 113.924 279.363 113.679C278.633 113.473 278.144 112.996 277.891 112.277C277.647 111.578 277.627 110.867 277.864 110.164C278.241 109.045 279.394 108.393 280.595 108.603C281.562 108.774 282.133 109.368 282.269 110.389C282.311 110.723 282.276 111.069 282.276 111.477ZM281.018 110.564C281.01 110.16 280.921 109.842 280.595 109.651C280.28 109.469 279.938 109.473 279.624 109.667C279.305 109.865 279.173 110.172 279.134 110.568C279.787 110.584 280.389 110.595 281.018 110.568V110.564Z" fill="#314983"/>
<path d="M306.673 94.678C305.589 93.4312 304.253 92.7476 302.587 92.7981C300.971 92.8447 299.58 93.3963 298.524 94.678C298.438 94.4683 298.415 93.9867 298.462 93.672C298.547 93.0739 298.823 92.5884 299.289 92.2C300.101 91.528 301.025 91.1241 302.074 91.027C303.538 90.8871 304.843 91.2911 305.966 92.2466C306.506 92.7088 306.805 93.2836 306.754 94.0138C306.739 94.2197 306.754 94.4295 306.754 94.6392L306.677 94.678H306.673Z" fill="#314983"/>
<path d="M286.025 93.9633C286.025 94.7246 285.45 95.2839 284.677 95.2801C283.935 95.2801 283.379 94.7091 283.372 93.9478C283.364 93.272 283.919 92.635 284.688 92.6272C285.454 92.6194 286.106 93.3186 286.025 93.9595V93.9633Z" fill="#314983"/>
<g clip-path="url(#clip2_2001_11999)">
<path d="M354.433 32H312.567C312.393 32 312.218 32 312.044 32.001C311.897 32.0021 311.75 32.0037 311.603 32.0078C311.283 32.0165 310.96 32.0356 310.644 32.0931C310.323 32.1515 310.024 32.2468 309.733 32.3968C309.446 32.5441 309.184 32.7369 308.956 32.9668C308.729 33.1968 308.538 33.4616 308.392 33.7516C308.244 34.0463 308.149 34.3485 308.092 34.6734C308.035 34.993 308.016 35.3192 308.007 35.6425C308.003 35.7908 308.002 35.9392 308.001 36.0875C308 36.2638 308 36.44 308 36.6166V60.3837C308 60.5603 308 60.7362 308.001 60.9129C308.002 61.0612 308.003 61.2095 308.007 61.3579C308.016 61.6808 308.035 62.0071 308.092 62.3266C308.149 62.6516 308.244 62.9537 308.392 63.2484C308.538 63.5385 308.729 63.8036 308.956 64.0332C309.184 64.2635 309.446 64.4562 309.733 64.6032C310.024 64.7536 310.323 64.849 310.644 64.9073C310.96 64.9644 311.283 64.9838 311.603 64.9926C311.75 64.9959 311.897 64.9979 312.044 64.9986C312.218 65 312.393 65 312.567 65H354.433C354.607 65 354.781 65 354.956 64.9986C355.102 64.9979 355.249 64.9959 355.397 64.9926C355.716 64.9838 356.039 64.9644 356.356 64.9073C356.676 64.849 356.975 64.7536 357.267 64.6032C357.554 64.4562 357.816 64.2635 358.044 64.0332C358.271 63.8036 358.461 63.5385 358.607 63.2484C358.756 62.9537 358.85 62.6516 358.908 62.3266C358.965 62.0071 358.983 61.6808 358.992 61.3579C358.996 61.2095 358.998 61.0612 358.999 60.9129C359 60.7362 359 60.5604 359 60.3837V36.6166C359 36.44 359 36.2638 358.999 36.0875C358.998 35.9392 358.996 35.7908 358.992 35.6425C358.983 35.3192 358.965 34.993 358.908 34.6734C358.851 34.3485 358.756 34.0463 358.607 33.7516C358.461 33.4616 358.271 33.1968 358.044 32.9668C357.816 32.7369 357.554 32.5441 357.267 32.3968C356.975 32.2468 356.676 32.1515 356.356 32.0931C356.039 32.0356 355.716 32.0165 355.397 32.0078C355.249 32.0037 355.102 32.0021 354.956 32.001C354.781 32 354.607 32 354.433 32Z" fill="black"/>
<path d="M354.433 33.1L354.948 33.101C355.087 33.102 355.227 33.1035 355.367 33.1074C355.611 33.114 355.897 33.1274 356.163 33.1756C356.394 33.2177 356.588 33.2817 356.774 33.3775C356.958 33.4719 357.126 33.5956 357.273 33.744C357.421 33.8934 357.543 34.0639 357.638 34.2517C357.732 34.4384 357.795 34.6335 357.837 34.869C357.884 35.135 357.897 35.4243 357.904 35.6725C357.908 35.8126 357.91 35.9527 357.91 36.0961C357.912 36.2695 357.912 36.4429 357.912 36.6166V60.3838C357.912 60.5575 357.912 60.7306 357.91 60.9077C357.91 61.0478 357.908 61.1878 357.904 61.3282C357.897 61.576 357.884 61.8651 357.836 62.1343C357.795 62.3665 357.732 62.5617 357.638 62.7493C357.543 62.9367 357.421 63.107 357.274 63.2554C357.126 63.4049 356.958 63.5282 356.772 63.6235C356.588 63.7188 356.394 63.7828 356.165 63.8245C355.893 63.8734 355.596 63.8868 355.372 63.893C355.231 63.8962 355.091 63.8981 354.947 63.8988C354.776 63.9001 354.604 63.9001 354.433 63.9001H312.567C312.565 63.9001 312.563 63.9001 312.56 63.9001C312.391 63.9001 312.222 63.9001 312.049 63.8987C311.909 63.8981 311.768 63.8962 311.633 63.8931C311.404 63.8868 311.106 63.8734 310.837 63.8248C310.606 63.7828 310.412 63.7188 310.225 63.6223C310.041 63.5278 309.873 63.4046 309.725 63.2549C309.578 63.1068 309.456 62.937 309.362 62.7494C309.268 62.5619 309.205 62.3662 309.163 62.1311C309.115 61.8625 309.102 61.5745 309.095 61.3284C309.091 61.1875 309.09 61.0466 309.089 60.9065L309.088 60.493L309.088 60.3838V36.6166L309.088 36.5074L309.089 36.0948C309.09 35.9539 309.091 35.813 309.095 35.6722C309.102 35.4258 309.115 35.1377 309.163 34.8668C309.205 34.6339 309.268 34.4381 309.363 34.2498C309.456 34.0636 309.578 33.8936 309.726 33.7445C309.873 33.5959 310.041 33.4723 310.227 33.377C310.412 33.2817 310.606 33.2177 310.837 33.1757C311.103 33.1273 311.389 33.114 311.633 33.1073C311.773 33.1035 311.912 33.102 312.051 33.101L312.567 33.1H354.433Z" fill="white"/>
<path d="M321.923 43.0993C322.359 42.5472 322.656 41.806 322.578 41.0485C321.938 41.0806 321.158 41.4748 320.707 42.0273C320.301 42.5004 319.942 43.2726 320.036 43.9983C320.753 44.0613 321.47 43.6358 321.923 43.0993Z" fill="black"/>
<path d="M322.569 44.1401C321.527 44.0773 320.641 44.7378 320.144 44.7378C319.646 44.7378 318.884 44.1717 318.059 44.1869C316.987 44.2029 315.991 44.8159 315.447 45.791C314.327 47.7416 315.151 50.6351 316.24 52.2238C316.769 53.0098 317.406 53.8752 318.246 53.8441C319.039 53.8126 319.35 53.3248 320.315 53.3248C321.278 53.3248 321.558 53.8441 322.398 53.8284C323.269 53.8126 323.814 53.042 324.343 52.2553C324.949 51.3593 325.197 50.4942 325.213 50.4467C325.197 50.4309 323.534 49.7858 323.518 47.8514C323.503 46.2317 324.825 45.4613 324.887 45.4135C324.14 44.2975 322.974 44.1717 322.569 44.1401Z" fill="black"/>
<path d="M331.643 41.948C333.908 41.948 335.485 43.526 335.485 45.8235C335.485 48.1291 333.876 49.7153 331.586 49.7153H329.079V53.7461H327.267V41.948L331.643 41.948ZM329.079 48.1782H331.157C332.735 48.1782 333.633 47.3198 333.633 45.8317C333.633 44.3437 332.735 43.4934 331.166 43.4934H329.079V48.1782Z" fill="black"/>
<path d="M335.959 51.3015C335.959 49.797 337.099 48.8732 339.122 48.7587L341.451 48.6197V47.9575C341.451 47.0009 340.812 46.4286 339.745 46.4286C338.733 46.4286 338.102 46.919 337.949 47.6877H336.298C336.395 46.1341 337.706 44.9895 339.809 44.9895C341.872 44.9895 343.19 46.0933 343.19 47.8184V53.7461H341.516V52.3317H341.476C340.982 53.2883 339.906 53.8933 338.79 53.8933C337.124 53.8933 335.959 52.8467 335.959 51.3015ZM341.451 50.5248V49.8462L339.356 49.977C338.312 50.0506 337.722 50.5166 337.722 51.2525C337.722 52.0046 338.337 52.4952 339.275 52.4952C340.497 52.4952 341.451 51.6449 341.451 50.5248Z" fill="black"/>
<path d="M344.771 56.9103V55.4795C344.9 55.5121 345.192 55.5121 345.337 55.5121C346.146 55.5121 346.583 55.1688 346.85 54.2858C346.85 54.2694 347.004 53.7625 347.004 53.7543L343.93 45.1448H345.823L347.975 52.1437H348.007L350.159 45.1448H352.003L348.816 54.1957C348.088 56.2808 347.247 56.9512 345.483 56.9512C345.337 56.9512 344.9 56.9348 344.771 56.9103Z" fill="black"/>
</g>
</g>
<defs>
<linearGradient id="paint0_linear_2001_11999" x1="38.0029" y1="47.7765" x2="99.1377" y2="47.7765" gradientUnits="userSpaceOnUse">
<stop stop-color="#241F5D"/>
<stop offset="1" stop-color="#034EA1"/>
</linearGradient>
<clipPath id="clip0_2001_11999">
<rect width="420" height="143" fill="white"/>
</clipPath>
<clipPath id="clip1_2001_11999">
<rect width="137" height="13" fill="white" transform="translate(142)"/>
</clipPath>
<clipPath id="clip2_2001_11999">
<rect width="51" height="33" fill="white" transform="translate(308 32)"/>
</clipPath>
</defs>
</svg>
